<svg role="presentation" fill="#3c83e0" version="1.1" xmlns="http://www.w3.org/2000/svg" width="40" height="40" viewBox="0 0 32 32"> <path d="M23.333 28.667h-20c-0.368 0-0.667-0.3-0.667-0.667v-17.333c0-0.368 0.299-0.667 0.667-0.667h20c0.367 0 0.667 0.299 0.667 0.667v17.333c0 0.367-0.3 0.667-0.667 0.667zM4 27.333h18.667v-16h-18.667v16zM23.333 28.667c-0.113 0-0.227-0.028-0.331-0.088-0.32-0.183-0.429-0.588-0.251-0.909l5.248-9.18v-13.823h-1.333c-0.367 0-0.667-0.299-0.667-0.667s0.3-0.667 0.667-0.667h2c0.367 0 0.667 0.299 0.667 0.667v14.667c0 0.116-0.028 0.229-0.085 0.331l-5.333 9.333c-0.125 0.216-0.351 0.336-0.581 0.336zM3.333 11.333c-0.145 0-0.293-0.048-0.416-0.145-0.287-0.231-0.333-0.649-0.104-0.937l5.333-6.667c0.127-0.159 0.317-0.251 0.52-0.251h20c0.26 0 0.496 0.151 0.605 0.387 0.108 0.236 0.071 0.513-0.097 0.712l-5.667 6.667c-0.237 0.28-0.656 0.316-0.94 0.076-0.28-0.239-0.312-0.659-0.076-0.94l4.733-5.568h-18.239l-5.133 6.417c-0.131 0.164-0.325 0.249-0.52 0.249zM16 16.667h-5.333c-0.368 0-0.667-0.299-0.667-0.667s0.299-0.667 0.667-0.667h5.333c0.368 0 0.667 0.299 0.667 0.667s-0.299 0.667-0.667 0.667zM12.333 11.333c-0.153 0-0.307-0.052-0.432-0.159-0.28-0.239-0.315-0.659-0.076-0.94l5.667-6.667c0.239-0.28 0.66-0.315 0.94-0.076s0.315 0.659 0.076 0.94l-5.667 6.667c-0.132 0.155-0.319 0.235-0.508 0.235z"></path> </svg>