<svg role="presentation" version="1.1" xmlns="http://www.w3.org/2000/svg" width="50" height="50" viewBox="0 0 32 32"> <path d="M28 28c-1.103 0-2-0.897-2-2 0-0.367-0.3-0.667-0.667-0.667s-0.667 0.3-0.667 0.667c0 1.103-0.897 2-2 2s-2-0.897-2-2c0-0.367-0.299-0.667-0.667-0.667-0.367 0-0.667 0.3-0.667 0.667 0 1.103-0.897 2-2 2s-2-0.897-2-2c0-0.367-0.299-0.667-0.667-0.667-0.367 0-0.667 0.3-0.667 0.667 0 1.103-0.897 2-2 2s-2-0.897-2-2c0-0.367-0.299-0.667-0.667-0.667-0.367 0-0.667 0.3-0.667 0.667 0 1.103-0.897 2-2 2s-2-0.897-2-2c0-0.367-0.299-0.667-0.667-0.667-0.367 0-0.667 0.3-0.667 0.667s-0.299 0.667-0.667 0.667c-0.367 0-0.667-0.3-0.667-0.667 0-1.103 0.897-2 2-2s2 0.897 2 2c0 0.367 0.3 0.667 0.667 0.667 0.368 0 0.667-0.3 0.667-0.667 0-1.103 0.897-2 2-2s2 0.897 2 2c0 0.367 0.3 0.667 0.667 0.667 0.368 0 0.667-0.3 0.667-0.667 0-1.103 0.897-2 2-2s2 0.897 2 2c0 0.367 0.3 0.667 0.667 0.667 0.368 0 0.667-0.3 0.667-0.667 0-1.103 0.897-2 2-2s2 0.897 2 2c0 0.367 0.3 0.667 0.667 0.667s0.667-0.3 0.667-0.667c0-1.103 0.897-2 2-2s2 0.897 2 2c0 0.367 0.3 0.667 0.667 0.667s0.667-0.3 0.667-0.667 0.3-0.667 0.667-0.667 0.667 0.3 0.667 0.667c0 1.103-0.897 2-2 2zM5.333 26.667c-0.237 0-0.468-0.128-0.587-0.352l-4.667-8.667c-0.111-0.205-0.105-0.456 0.015-0.659 0.119-0.199 0.336-0.323 0.571-0.323h21.057l2.472-2.472c0.125-0.127 0.295-0.195 0.472-0.195h6.667c0.228 0 0.44 0.115 0.563 0.305 0.123 0.195 0.139 0.433 0.041 0.639l-4.667 10c-0.156 0.333-0.551 0.477-0.887 0.32-0.333-0.156-0.477-0.552-0.321-0.885l4.224-9.052h-5.344l-2.472 2.472c-0.128 0.127-0.297 0.195-0.472 0.195h-20.216l4.139 7.687c0.175 0.324 0.053 0.729-0.272 0.905-0.1 0.055-0.208 0.081-0.316 0.081zM8.667 18h-6.667c-0.367 0-0.667-0.3-0.667-0.667v-6.667c0-0.367 0.3-0.667 0.667-0.667h6.667c0.368 0 0.667 0.3 0.667 0.667v6.667c0 0.367-0.299 0.667-0.667 0.667zM2.667 16.667h5.333v-5.333h-5.333v5.333zM3.333 10.667c-0.367 0-0.667-0.3-0.667-0.667v-5.333c0-0.367 0.3-0.667 0.667-0.667 0.368 0 0.667 0.3 0.667 0.667v5.333c0 0.367-0.299 0.667-0.667 0.667zM7.333 10.667c-0.367 0-0.667-0.3-0.667-0.667v-2.667c0-0.367 0.3-0.667 0.667-0.667 0.368 0 0.667 0.3 0.667 0.667v2.667c0 0.367-0.299 0.667-0.667 0.667zM15.333 18h-4c-0.367 0-0.667-0.3-0.667-0.667v-5.333c0-0.367 0.3-0.667 0.667-0.667h4c0.368 0 0.667 0.3 0.667 0.667v5.333c0 0.367-0.299 0.667-0.667 0.667zM12 16.667h2.667v-4h-2.667v4zM19.333 18h-4c-0.367 0-0.667-0.3-0.667-0.667v-8c0-0.367 0.3-0.667 0.667-0.667h4c0.368 0 0.667 0.3 0.667 0.667v8c0 0.367-0.299 0.667-0.667 0.667zM16 16.667h2.667v-6.667h-2.667v6.667z"></path> </svg>