<svg role="presentation" version="1.1" xmlns="http://www.w3.org/2000/svg" width="50" height="50" viewBox="0 0 32 32"> <path d="M26.112 24.331h-14.667c-0.275 0-0.521-0.169-0.621-0.424l-5.54-14.243h-2.951v1.333c0 0.367-0.299 0.667-0.667 0.667s-0.667-0.3-0.667-0.667v-2c0-0.367 0.299-0.667 0.667-0.667h4.075c0.275 0 0.521 0.169 0.621 0.424l5.539 14.243h13.752l3.092-8.121-18.501-2.552c-0.364-0.049-0.621-0.387-0.571-0.751 0.049-0.361 0.373-0.612 0.751-0.569l19.333 2.667c0.2 0.028 0.379 0.144 0.483 0.32 0.103 0.175 0.121 0.387 0.048 0.577l-3.555 9.333c-0.096 0.259-0.345 0.429-0.621 0.429zM14.925 26.405c0.9 0 1.629 0.731 1.629 1.629 0 0.904-0.729 1.633-1.629 1.633s-1.629-0.731-1.629-1.633c0.001-0.899 0.732-1.629 1.629-1.629zM14.925 25.072c-1.633 0-2.963 1.329-2.963 2.963 0 1.637 1.329 2.967 2.963 2.967s2.963-1.329 2.963-2.967c0.003-1.633-1.329-2.963-2.963-2.963v0zM22.631 26.405c0.9 0 1.629 0.731 1.629 1.629 0 0.904-0.729 1.633-1.629 1.633-0.901 0-1.631-0.731-1.631-1.633 0-0.899 0.729-1.629 1.631-1.629zM22.631 25.072c-1.633 0-2.964 1.329-2.964 2.963 0 1.637 1.331 2.967 2.964 2.967s2.963-1.329 2.963-2.967c-0.001-1.633-1.331-2.963-2.963-2.963v0zM25 21.664h-12c-0.368 0-0.667-0.3-0.667-0.667s0.299-0.667 0.667-0.667h12c0.368 0 0.667 0.3 0.667 0.667s-0.299 0.667-0.667 0.667zM25 18.997h-12c-0.368 0-0.667-0.3-0.667-0.667s0.299-0.667 0.667-0.667h12c0.368 0 0.667 0.3 0.667 0.667s-0.299 0.667-0.667 0.667zM22.333 16.331h-9.333c-0.368 0-0.667-0.3-0.667-0.667s0.299-0.667 0.667-0.667h9.333c0.368 0 0.667 0.3 0.667 0.667s-0.299 0.667-0.667 0.667zM25 8.997c-0.175 0-0.347-0.071-0.472-0.195l-2.667-2.667c-0.26-0.257-0.26-0.683 0-0.943 0.26-0.257 0.683-0.257 0.943 0l2.14 2.139 4.867-6.084c0.232-0.285 0.649-0.331 0.937-0.101 0.287 0.231 0.333 0.648 0.104 0.935l-5.333 6.667c-0.12 0.148-0.295 0.241-0.484 0.251-0.008-0.001-0.021-0.001-0.035-0.001z"></path> </svg>