<svg role="presentation" version="1.1" xmlns="http://www.w3.org/2000/svg" width="50" height="50" viewBox="0 0 32 32"> <path d="M0.667 23.977c-0.115 0-0.231-0.029-0.333-0.089-0.207-0.119-0.333-0.339-0.333-0.577v-14.627c0-0.239 0.127-0.459 0.333-0.577 0.205-0.121 0.461-0.121 0.667 0l12.667 7.309c0.207 0.119 0.333 0.339 0.333 0.58 0 0.239-0.127 0.459-0.333 0.577l-12.667 7.312c-0.103 0.063-0.219 0.092-0.333 0.092zM1.333 9.841v12.315l10.667-6.157-10.667-6.157zM18 29.999c-4.905 0-9.368-2.505-11.94-6.7-0.193-0.312-0.093-0.724 0.22-0.917s0.724-0.092 0.917 0.221c2.327 3.797 6.365 6.064 10.803 6.064 6.984 0 12.667-5.683 12.667-12.667 0-6.983-5.683-12.667-12.667-12.667-4.437 0-8.476 2.267-10.803 6.067-0.192 0.311-0.603 0.412-0.917 0.221-0.313-0.196-0.413-0.603-0.22-0.919 2.571-4.196 7.033-6.701 11.94-6.701 7.72 0 14 6.281 14 14s-6.28 13.997-14 13.997zM18 25.999c-3.448 0-6.611-1.757-8.459-4.703-0.196-0.309-0.101-0.723 0.211-0.917 0.311-0.197 0.723-0.101 0.919 0.208 1.604 2.555 4.343 4.081 7.331 4.081 4.779 0 8.667-3.888 8.667-8.667s-3.888-8.667-8.667-8.667c-2.987 0-5.727 1.527-7.331 4.081-0.195 0.309-0.605 0.407-0.919 0.208-0.312-0.195-0.407-0.608-0.211-0.917 1.848-2.945 5.011-4.703 8.459-4.703 5.515 0 10 4.485 10 10s-4.485 9.995-10 9.995z"></path> </svg>