<svg role="presentation" version="1.1" xmlns="http://www.w3.org/2000/svg" width="50" height="50" viewBox="0 0 32 32"> <path d="M26.445 24.708h-14.667c-0.275 0-0.521-0.169-0.621-0.424l-5.54-14.243h-2.951v1.333c0 0.367-0.299 0.667-0.667 0.667s-0.667-0.3-0.667-0.667v-2c0-0.367 0.299-0.667 0.667-0.667h4.075c0.275 0 0.521 0.169 0.621 0.424l5.539 14.243h13.752l3.092-8.121-18.501-2.552c-0.364-0.049-0.621-0.387-0.571-0.752 0.049-0.361 0.376-0.612 0.751-0.569l19.333 2.667c0.201 0.028 0.379 0.144 0.483 0.32 0.103 0.175 0.121 0.387 0.048 0.577l-3.555 9.333c-0.096 0.259-0.345 0.431-0.621 0.431zM15.257 26.781c0.9 0 1.631 0.732 1.631 1.631 0 0.904-0.729 1.633-1.631 1.633-0.9 0-1.629-0.732-1.629-1.633 0.001-0.899 0.732-1.631 1.629-1.631zM15.257 25.448c-1.633 0-2.963 1.331-2.963 2.964 0 1.636 1.329 2.967 2.963 2.967s2.964-1.331 2.964-2.967c0-1.633-1.331-2.964-2.964-2.964v0zM22.963 26.781c0.9 0 1.629 0.732 1.629 1.631 0 0.904-0.729 1.633-1.629 1.633s-1.629-0.733-1.629-1.633c0-0.899 0.729-1.631 1.629-1.631zM22.963 25.448c-1.635 0-2.963 1.331-2.963 2.964 0 1.636 1.328 2.967 2.963 2.967 1.633 0 2.963-1.331 2.963-2.967-0.001-1.633-1.331-2.964-2.963-2.964v0zM25.333 22.041h-12c-0.368 0-0.667-0.3-0.667-0.667s0.299-0.667 0.667-0.667h12c0.367 0 0.667 0.3 0.667 0.667s-0.3 0.667-0.667 0.667zM25.333 19.375h-12c-0.368 0-0.667-0.3-0.667-0.667s0.299-0.667 0.667-0.667h12c0.367 0 0.667 0.3 0.667 0.667s-0.3 0.667-0.667 0.667zM22.667 16.708h-9.333c-0.368 0-0.667-0.3-0.667-0.667s0.299-0.667 0.667-0.667h9.333c0.367 0 0.667 0.3 0.667 0.667s-0.3 0.667-0.667 0.667zM28.123 11.28c-0.035 0-0.071-0.003-0.107-0.008-0.364-0.059-0.611-0.401-0.553-0.764 0.644-4.019-2.097-7.808-6.116-8.457-4.013-0.645-7.812 2.096-8.457 6.115-0.059 0.363-0.403 0.619-0.765 0.552-0.363-0.057-0.611-0.4-0.552-0.763 0.764-4.744 5.241-7.983 9.987-7.219 4.744 0.761 7.981 5.241 7.219 9.984-0.051 0.328-0.335 0.56-0.655 0.56zM22.351 12.041c-0.368 0-0.667-0.3-0.667-0.667 0-0.473-0.099-0.568-1.179-1.099l-0.584-0.289c-1.072-0.529-1.921-0.948-1.921-2.296 0-1.305 1.032-2.215 2.511-2.215 1.484 0 2.481 0.891 2.481 2.215 0 0.365-0.3 0.667-0.667 0.667-0.369 0-0.667-0.301-0.667-0.667 0-0.796-0.805-0.881-1.148-0.881-0.355 0-1.177 0.085-1.177 0.881 0 0.472 0.099 0.568 1.18 1.1l0.583 0.288c1.075 0.528 1.923 0.947 1.923 2.296-0.001 0.367-0.3 0.667-0.668 0.667zM20.44 5.361c-0.188 0-0.361-0.068-0.48-0.2-0.107-0.107-0.187-0.28-0.187-0.453 0-0.188 0.065-0.361 0.199-0.48 0.241-0.24 0.695-0.251 0.933 0 0.133 0.121 0.2 0.293 0.2 0.48 0 0.173-0.081 0.347-0.2 0.467-0.105 0.119-0.279 0.187-0.465 0.187zM19.773 4.7h1.333v1.611h-1.333v-1.611z"></path> </svg>