<svg role="presentation" version="1.1" xmlns="http://www.w3.org/2000/svg" width="50" height="50" viewBox="0 0 32 32"> <path d="M19.335 6.615h-6.667c-0.367 0-0.667-0.3-0.667-0.667v-5.333c0-0.367 0.3-0.667 0.667-0.667h6.667c0.367 0 0.667 0.3 0.667 0.667v5.333c0 0.368-0.3 0.667-0.667 0.667zM13.335 5.281h5.333v-4h-5.333v4zM13.335 6.615h1.333v2.667h-1.333v-2.667zM17.335 6.615h1.333v2.667h-1.333v-2.667zM5.805 10.144l1.942 1.939-0.941 0.943-1.942-1.939 0.941-0.943zM4.001 12.615c-0.171 0-0.341-0.065-0.472-0.195-0.26-0.257-0.26-0.683 0-0.943l2.667-2.667c0.257-0.257 0.683-0.257 0.943 0 0.257 0.26 0.257 0.685 0 0.943l-2.667 2.667c-0.129 0.131-0.3 0.195-0.471 0.195zM26.197 10.142l0.943 0.943-1.94 1.94-0.943-0.943 1.94-1.94zM28.001 12.615c-0.171 0-0.341-0.065-0.472-0.195l-2.667-2.667c-0.26-0.257-0.26-0.683 0-0.943 0.257-0.257 0.683-0.257 0.943 0l2.667 2.667c0.257 0.26 0.257 0.685 0 0.943-0.129 0.131-0.3 0.195-0.471 0.195zM16.001 20.615c-0.145 0-0.297-0.047-0.419-0.148-0.287-0.229-0.331-0.648-0.099-0.937l5.336-6.609c0.232-0.284 0.651-0.331 0.937-0.099 0.288 0.232 0.331 0.651 0.099 0.937l-5.336 6.609c-0.132 0.163-0.324 0.247-0.519 0.247zM16.001 32.052c-6.673 0-12.103-5.429-12.103-12.104 0-6.673 5.429-12.101 12.103-12.101s12.103 5.427 12.103 12.101c0 6.675-5.429 12.104-12.103 12.104zM16.001 9.18c-5.939 0-10.769 4.831-10.769 10.768 0 5.94 4.831 10.771 10.769 10.771s10.769-4.831 10.769-10.771c0-5.937-4.831-10.768-10.769-10.768z"></path> </svg>