<svg role="presentation" version="1.1" xmlns="http://www.w3.org/2000/svg" width="40" height="40" viewBox="0 0 32 32"> <path d="M29.972 16.639h-28c-0.367 0-0.667-0.3-0.667-0.667s0.3-0.667 0.667-0.667h28c0.367 0 0.667 0.3 0.667 0.667s-0.3 0.667-0.667 0.667zM27.305 7.305h-22.667c-0.367 0-0.667-0.3-0.667-0.667s0.3-0.667 0.667-0.667h22.667c0.367 0 0.667 0.3 0.667 0.667s-0.3 0.667-0.667 0.667zM27.305 25.972h-22.667c-0.367 0-0.667-0.3-0.667-0.667s0.3-0.667 0.667-0.667h22.667c0.367 0 0.667 0.3 0.667 0.667s-0.3 0.667-0.667 0.667zM16 30.695c-0.196 0-0.389-0.085-0.523-0.251-0.229-0.289-0.183-0.707 0.104-0.937 4.567-3.653 7.149-9.152 6.909-14.709-0.219-5.039-2.72-9.515-6.861-12.273-0.307-0.204-0.389-0.617-0.185-0.923 0.201-0.305 0.616-0.391 0.923-0.187 4.5 2.999 7.216 7.859 7.456 13.325 0.257 5.977-2.511 11.889-7.409 15.808-0.12 0.099-0.269 0.147-0.413 0.147zM15.999 30.695c-0.145 0-0.295-0.048-0.417-0.145-4.897-3.917-7.667-9.828-7.407-15.805 0.237-5.471 2.955-10.327 7.453-13.325 0.305-0.201 0.72-0.123 0.924 0.187 0.203 0.305 0.121 0.721-0.187 0.923-4.139 2.759-6.64 7.233-6.859 12.273-0.241 5.557 2.341 11.056 6.908 14.707 0.287 0.233 0.333 0.651 0.104 0.937-0.131 0.164-0.324 0.249-0.52 0.249zM16 31.333c-8.455 0-15.333-6.88-15.333-15.333 0-8.456 6.879-15.333 15.333-15.333 8.453 0 15.333 6.877 15.333 15.333 0 8.453-6.88 15.333-15.333 15.333zM16 2c-7.72 0-14 6.279-14 14 0 7.719 6.28 14 14 14 7.719 0 14-6.281 14-14 0-7.721-6.281-14-14-14z"></path> </svg>