<svg role="presentation" version="1.1" xmlns="http://www.w3.org/2000/svg" width="50" height="50" viewBox="0 0 32 32"> <path d="M16.724 27.461c-0.167 0-0.329-0.065-0.453-0.18l-6.196-5.708c-0.271-0.251-0.288-0.673-0.036-0.943 0.249-0.267 0.672-0.289 0.94-0.036l5.615 5.173 12.505-19.365-26.375 8.357 4.355 3.473c0.291 0.229 0.337 0.648 0.105 0.936-0.228 0.291-0.648 0.335-0.935 0.105l-5.331-4.255c-0.195-0.151-0.287-0.401-0.241-0.639 0.044-0.243 0.219-0.44 0.453-0.515l29.333-9.297c0.271-0.083 0.56 0.011 0.735 0.232 0.172 0.224 0.183 0.528 0.028 0.765l-13.94 21.589c-0.107 0.165-0.281 0.275-0.473 0.3-0.035 0.003-0.061 0.005-0.089 0.005zM6.621 26.009c-0.079 0-0.156-0.013-0.233-0.039-0.26-0.097-0.433-0.349-0.433-0.628v-6.635c0-0.368 0.3-0.667 0.667-0.667s0.667 0.299 0.667 0.667v4.844l2.7-3.125c0.243-0.28 0.664-0.307 0.94-0.068 0.279 0.241 0.307 0.661 0.069 0.94l-3.872 4.476c-0.128 0.153-0.313 0.235-0.504 0.235zM10.495 21.529c-0.197 0-0.396-0.088-0.528-0.257-0.227-0.291-0.173-0.709 0.12-0.935l12.985-10.084-16.091 9.080c-0.32 0.18-0.727 0.068-0.911-0.251-0.181-0.321-0.068-0.728 0.251-0.912l24.012-13.545c0.305-0.172 0.688-0.080 0.88 0.211 0.195 0.292 0.133 0.683-0.143 0.896l-20.171 15.657c-0.119 0.095-0.263 0.14-0.405 0.14z"></path> </svg>