<svg role="presentation" version="1.1" xmlns="http://www.w3.org/2000/svg" width="50" height="50" viewBox="0 0 32 32"> <path d="M30.667 23.333h-29.333c-0.368 0-0.667-0.3-0.667-0.667v-18.667c0-0.367 0.299-0.667 0.667-0.667h29.333c0.367 0 0.667 0.3 0.667 0.667v18.667c0 0.367-0.3 0.667-0.667 0.667zM2 22h28v-17.333h-28v17.333zM21.332 28.667h-10.665c-0.368 0-0.667-0.3-0.667-0.667s0.299-0.667 0.667-0.667c2.388 0 2.891-3.528 2.891-4.223 0-0.368 0.299-0.667 0.667-0.667s0.667 0.299 0.667 0.667c0 1.080-0.408 2.952-1.469 4.223h5.157c-1.060-1.271-1.469-3.143-1.469-4.223 0-0.368 0.3-0.667 0.667-0.667s0.667 0.299 0.667 0.667c0 0.695 0.503 4.223 2.889 4.223 0.368 0 0.667 0.3 0.667 0.667s-0.299 0.667-0.667 0.667zM6 14.611c-0.208 0-0.413-0.096-0.543-0.279-0.215-0.301-0.145-0.716 0.155-0.929l4.111-2.944c0.151-0.108 0.341-0.152 0.521-0.112l6.968 1.419 8.389-5.059c0.309-0.191 0.724-0.089 0.915 0.227 0.191 0.313 0.089 0.724-0.227 0.915l-8.611 5.195c-0.143 0.085-0.315 0.117-0.479 0.084l-6.936-1.415-3.875 2.775c-0.119 0.084-0.255 0.124-0.389 0.124zM9.333 20.667h-2.667c-0.368 0-0.667-0.3-0.667-0.667v-2.667c0-0.367 0.299-0.667 0.667-0.667h2.667c0.368 0 0.667 0.3 0.667 0.667v2.667c0 0.367-0.299 0.667-0.667 0.667zM7.333 19.333h1.333v-1.333h-1.333v1.333zM14.667 20.667h-2.667c-0.368 0-0.667-0.3-0.667-0.667v-5.333c0-0.367 0.299-0.667 0.667-0.667h2.667c0.368 0 0.667 0.3 0.667 0.667v5.333c0 0.367-0.299 0.667-0.667 0.667zM12.667 19.333h1.333v-4h-1.333v4zM20 20.667h-2.667c-0.367 0-0.667-0.3-0.667-0.667v-4c0-0.367 0.3-0.667 0.667-0.667h2.667c0.367 0 0.667 0.3 0.667 0.667v4c0 0.367-0.3 0.667-0.667 0.667zM18 19.333h1.333v-2.667h-1.333v2.667zM25.333 20.667h-2.667c-0.367 0-0.667-0.3-0.667-0.667v-8c0-0.367 0.3-0.667 0.667-0.667h2.667c0.367 0 0.667 0.3 0.667 0.667v8c0 0.367-0.3 0.667-0.667 0.667zM23.333 19.333h1.333v-6.667h-1.333v6.667z"></path> </svg>