<svg role="presentation" version="1.1" xmlns="http://www.w3.org/2000/svg" width="50" height="50" viewBox="0 0 32 32"> <path d="M10.763 30.285c-5.567 0-10.096-4.528-10.096-10.096 0-5.567 4.528-10.092 10.096-10.092 5.567 0 10.093 4.528 10.093 10.092 0.001 5.567-4.527 10.096-10.093 10.096zM10.763 11.427c-4.832 0-8.763 3.931-8.763 8.761s3.931 8.76 8.763 8.76 8.76-3.929 8.76-8.76-3.929-8.761-8.76-8.761zM21.24 30.285c-5.568 0-10.097-4.528-10.097-10.096 0-5.567 4.529-10.092 10.097-10.092 5.565 0 10.093 4.528 10.093 10.092 0 5.567-4.528 10.096-10.093 10.096zM21.24 11.427c-4.833 0-8.764 3.931-8.764 8.761s3.931 8.76 8.764 8.76c4.829 0 8.76-3.929 8.76-8.76s-3.931-8.761-8.76-8.761zM16 21.904c-5.567 0-10.096-4.528-10.096-10.095s4.528-10.093 10.096-10.093c5.567 0 10.093 4.528 10.093 10.093s-4.527 10.095-10.093 10.095zM16 3.045c-4.832 0-8.763 3.929-8.763 8.763 0 4.831 3.931 8.759 8.763 8.759s8.76-3.928 8.76-8.759c0-4.833-3.928-8.763-8.76-8.763z"></path> </svg>