<svg role="presentation" version="1.1" xmlns="http://www.w3.org/2000/svg" width="50" height="50" viewBox="0 0 32 32"> <path d="M24.693 32.001c-0.008 0-0.017 0-0.027 0h-16c-0.192 0-0.375-0.084-0.5-0.227-0.127-0.143-0.185-0.336-0.16-0.527l4-30.667c0.043-0.333 0.327-0.584 0.661-0.584h8c0.335 0 0.617 0.251 0.661 0.584l3.975 30.481c0.036 0.084 0.057 0.173 0.057 0.268-0.001 0.371-0.3 0.671-0.668 0.671zM9.425 30.668h14.481l-3.825-29.333h-6.831l-3.825 29.333zM16.667 2.668c-0.368 0-0.667-0.3-0.667-0.667v-0.667c0-0.367 0.299-0.667 0.667-0.667 0.367 0 0.667 0.3 0.667 0.667v0.667c0 0.367-0.3 0.667-0.667 0.667zM16.667 10.668c-0.368 0-0.667-0.3-0.667-0.667v-1.333c0-0.367 0.299-0.667 0.667-0.667 0.367 0 0.667 0.3 0.667 0.667v1.333c0 0.367-0.3 0.667-0.667 0.667zM16.667 6.668c-0.368 0-0.667-0.3-0.667-0.667v-1.333c0-0.367 0.299-0.667 0.667-0.667 0.367 0 0.667 0.3 0.667 0.667v1.333c0 0.367-0.3 0.667-0.667 0.667zM16.667 14.001c-0.368 0-0.667-0.3-0.667-0.667v-0.667c0-0.367 0.299-0.667 0.667-0.667 0.367 0 0.667 0.3 0.667 0.667v0.667c0 0.367-0.3 0.667-0.667 0.667zM16.667 31.335c-0.368 0-0.667-0.3-0.667-0.667v-1.333c0-0.367 0.299-0.667 0.667-0.667 0.367 0 0.667 0.3 0.667 0.667v1.333c0 0.367-0.3 0.667-0.667 0.667zM16.667 27.335c-0.368 0-0.667-0.3-0.667-0.667v-1.333c0-0.367 0.299-0.667 0.667-0.667 0.367 0 0.667 0.3 0.667 0.667v1.333c0 0.367-0.3 0.667-0.667 0.667zM16.667 23.335c-0.368 0-0.667-0.3-0.667-0.667v-1.333c0-0.367 0.299-0.667 0.667-0.667 0.367 0 0.667 0.3 0.667 0.667v1.333c0 0.367-0.3 0.667-0.667 0.667zM16.667 19.335c-0.368 0-0.667-0.3-0.667-0.667v-1.333c0-0.367 0.299-0.667 0.667-0.667 0.367 0 0.667 0.3 0.667 0.667v1.333c0 0.367-0.3 0.667-0.667 0.667zM30.667 17.335h-29.333c-0.368 0-0.667-0.3-0.667-0.667s0.299-0.667 0.667-0.667h29.333c0.367 0 0.667 0.3 0.667 0.667s-0.3 0.667-0.667 0.667zM30.667 14.668h-29.333c-0.368 0-0.667-0.3-0.667-0.667s0.299-0.667 0.667-0.667h29.333c0.367 0 0.667 0.3 0.667 0.667s-0.3 0.667-0.667 0.667zM6.583 22.001c-0.069 0-0.14-0.011-0.211-0.033-0.349-0.117-0.537-0.495-0.421-0.844l1.375-4.125c0.116-0.349 0.489-0.539 0.843-0.421 0.349 0.117 0.537 0.495 0.421 0.844l-1.375 4.128c-0.092 0.275-0.352 0.452-0.632 0.452zM26.625 22.001c-0.279 0-0.539-0.177-0.632-0.456l-1.375-4.125c-0.116-0.352 0.072-0.727 0.42-0.844 0.353-0.117 0.728 0.075 0.844 0.419l1.375 4.128c0.115 0.349-0.073 0.727-0.421 0.844-0.071 0.024-0.141 0.035-0.211 0.035z"></path> </svg>