<svg role="presentation" version="1.1" fill="#3c83e0" xmlns="http://www.w3.org/2000/svg" width="40" height="40" viewBox="0 0 32 32"> <path d="M31.333 29.333h-30.667c-0.368 0-0.667-0.3-0.667-0.667v-25.333c0-0.367 0.299-0.667 0.667-0.667h30.667c0.367 0 0.667 0.3 0.667 0.667v25.333c0 0.367-0.3 0.667-0.667 0.667zM1.333 28h29.333v-24h-29.333v24zM30.667 9.333h-29.333c-0.368 0-0.667-0.3-0.667-0.667s0.299-0.667 0.667-0.667h29.333c0.367 0 0.667 0.3 0.667 0.667s-0.3 0.667-0.667 0.667zM19.636 27.212c-0.367 0-0.667-0.299-0.667-0.667v-1.089c0-0.365 0.3-0.667 0.667-0.667 0.368 0 0.667 0.301 0.667 0.667v1.089c0 0.369-0.299 0.667-0.667 0.667zM19.636 19.576c-0.367 0-0.667-0.297-0.667-0.667v-1.087c0-0.365 0.3-0.667 0.667-0.667 0.368 0 0.667 0.301 0.667 0.667v1.087c0 0.369-0.299 0.667-0.667 0.667zM24 22.849h-1.091c-0.367 0-0.667-0.299-0.667-0.667 0-0.364 0.3-0.667 0.667-0.667h1.091c0.367 0 0.667 0.303 0.667 0.667 0 0.368-0.3 0.667-0.667 0.667zM16.364 22.849h-1.091c-0.368 0-0.667-0.299-0.667-0.667 0-0.364 0.299-0.667 0.667-0.667h1.091c0.368 0 0.667 0.303 0.667 0.667 0 0.368-0.297 0.667-0.667 0.667zM22.721 25.933c-0.171 0-0.341-0.065-0.472-0.195l-0.773-0.773c-0.26-0.26-0.26-0.687 0-0.943 0.259-0.26 0.683-0.26 0.943 0l0.773 0.773c0.259 0.257 0.259 0.683 0 0.943-0.129 0.128-0.3 0.195-0.471 0.195zM17.325 20.536c-0.169 0-0.34-0.065-0.472-0.195l-0.776-0.773c-0.26-0.26-0.261-0.683-0.001-0.943s0.68-0.257 0.944-0.003l0.776 0.773c0.259 0.26 0.26 0.683 0 0.943-0.129 0.133-0.299 0.197-0.471 0.197zM21.948 20.533c-0.171 0-0.341-0.065-0.472-0.196-0.26-0.259-0.259-0.684 0-0.943l0.773-0.771c0.261-0.259 0.684-0.259 0.943 0.003 0.26 0.261 0.259 0.684 0 0.943l-0.773 0.771c-0.131 0.129-0.301 0.193-0.471 0.193zM16.549 25.933c-0.171 0-0.341-0.065-0.472-0.195-0.26-0.26-0.26-0.688 0.001-0.943l0.773-0.773c0.259-0.259 0.683-0.259 0.943 0 0.26 0.257 0.26 0.685 0 0.943l-0.773 0.773c-0.131 0.128-0.301 0.195-0.472 0.195zM19.636 26.121c-2.169 0-3.937-1.767-3.937-3.939 0-2.173 1.768-3.94 3.937-3.94 2.172 0 3.94 1.767 3.94 3.94 0 2.172-1.769 3.939-3.94 3.939zM19.636 19.576c-1.435 0-2.604 1.169-2.604 2.607s1.169 2.607 2.604 2.607c1.437 0 2.607-1.169 2.607-2.607s-1.169-2.607-2.607-2.607zM10.909 27.212c-0.368 0-0.667-0.299-0.667-0.667v-0.728c0-0.367 0.299-0.667 0.667-0.667s0.667 0.3 0.667 0.667v0.728c0 0.369-0.299 0.667-0.667 0.667zM10.909 22.121c-0.368 0-0.667-0.299-0.667-0.667v-0.728c0-0.367 0.299-0.667 0.667-0.667s0.667 0.3 0.667 0.667v0.728c0 0.368-0.299 0.667-0.667 0.667zM13.817 24.303h-0.727c-0.368 0-0.667-0.299-0.667-0.667 0-0.364 0.299-0.667 0.667-0.667h0.727c0.368 0 0.667 0.303 0.667 0.667 0 0.368-0.297 0.667-0.667 0.667zM8.727 24.303h-0.727c-0.368 0-0.667-0.299-0.667-0.667 0-0.364 0.299-0.667 0.667-0.667h0.727c0.368 0 0.667 0.303 0.667 0.667 0 0.368-0.299 0.667-0.667 0.667zM12.967 26.36c-0.171 0-0.341-0.065-0.472-0.195l-0.516-0.517c-0.26-0.259-0.26-0.685 0-0.943 0.26-0.259 0.683-0.259 0.943 0l0.516 0.517c0.26 0.259 0.26 0.684 0 0.943-0.131 0.129-0.3 0.195-0.471 0.195zM9.368 22.763c-0.171 0-0.341-0.065-0.472-0.195l-0.517-0.519c-0.26-0.259-0.26-0.685 0-0.943 0.26-0.259 0.683-0.259 0.943 0l0.517 0.519c0.26 0.26 0.26 0.683 0 0.943-0.129 0.129-0.3 0.195-0.471 0.195zM12.451 22.76c-0.171 0-0.341-0.065-0.472-0.195-0.26-0.26-0.26-0.685 0.001-0.943l0.516-0.516c0.261-0.259 0.683-0.259 0.943 0s0.26 0.685-0.001 0.943l-0.516 0.516c-0.131 0.129-0.3 0.195-0.471 0.195zM8.852 26.36c-0.171 0-0.341-0.065-0.472-0.195-0.26-0.261-0.26-0.684 0.001-0.943l0.516-0.515c0.261-0.259 0.683-0.259 0.943 0 0.26 0.257 0.26 0.684-0.001 0.943l-0.516 0.515c-0.131 0.129-0.3 0.195-0.471 0.195zM10.909 26.484c-1.571 0-2.849-1.279-2.849-2.853s1.277-2.851 2.849-2.851c1.572 0 2.849 1.276 2.849 2.851s-1.279 2.853-2.849 2.853zM10.909 22.121c-0.836 0-1.516 0.68-1.516 1.515 0 0.836 0.68 1.52 1.516 1.52s1.516-0.68 1.516-1.52c-0.001-0.833-0.68-1.515-1.516-1.515zM15.273 18.484c-0.368 0-0.667-0.303-0.667-0.667v-0.727c0-0.367 0.299-0.667 0.667-0.667s0.667 0.3 0.667 0.667v0.727c0 0.371-0.299 0.667-0.667 0.667zM15.273 13.393c-0.368 0-0.667-0.3-0.667-0.667v-0.727c0-0.367 0.299-0.667 0.667-0.667s0.667 0.3 0.667 0.667v0.727c0 0.367-0.299 0.667-0.667 0.667zM18.183 15.576h-0.728c-0.368 0-0.667-0.297-0.667-0.667 0-0.364 0.299-0.667 0.667-0.667h0.728c0.368 0 0.667 0.303 0.667 0.667 0 0.369-0.299 0.667-0.667 0.667zM13.091 15.576h-0.727c-0.368 0-0.667-0.297-0.667-0.667 0-0.364 0.299-0.667 0.667-0.667h0.727c0.368 0 0.667 0.303 0.667 0.667 0 0.369-0.297 0.667-0.667 0.667zM17.329 17.633c-0.171 0-0.341-0.065-0.472-0.195l-0.516-0.517c-0.26-0.259-0.26-0.685 0-0.943 0.26-0.259 0.683-0.259 0.943 0l0.516 0.517c0.26 0.259 0.26 0.684 0 0.943-0.129 0.129-0.3 0.195-0.471 0.195zM13.732 14.033c-0.171 0-0.341-0.065-0.472-0.195l-0.516-0.519c-0.26-0.26-0.26-0.685 0.001-0.943 0.26-0.259 0.683-0.259 0.943 0l0.516 0.519c0.26 0.26 0.26 0.685-0.001 0.943-0.131 0.133-0.3 0.195-0.471 0.195zM16.815 14.033c-0.171 0-0.34-0.065-0.472-0.195-0.261-0.257-0.261-0.683-0.001-0.943l0.515-0.516c0.26-0.26 0.683-0.26 0.943 0 0.261 0.255 0.261 0.681 0.003 0.943l-0.516 0.516c-0.128 0.131-0.3 0.195-0.471 0.195zM13.216 17.633c-0.169 0-0.34-0.065-0.471-0.195-0.261-0.259-0.263-0.684-0.003-0.943l0.513-0.517c0.26-0.259 0.683-0.259 0.943-0.003 0.261 0.256 0.263 0.684 0.003 0.943l-0.513 0.517c-0.129 0.132-0.3 0.197-0.472 0.197zM15.273 17.757c-1.571 0-2.849-1.279-2.849-2.853s1.277-2.853 2.849-2.853c1.571 0 2.848 1.279 2.848 2.853s-1.277 2.853-2.848 2.853zM15.273 13.393c-0.836 0-1.516 0.68-1.516 1.516 0 0.839 0.68 1.52 1.516 1.52 0.835 0 1.515-0.68 1.515-1.52 0-0.836-0.679-1.516-1.515-1.516zM4 6c0 0.368-0.299 0.667-0.667 0.667s-0.667-0.299-0.667-0.667c0-0.368 0.299-0.667 0.667-0.667s0.667 0.299 0.667 0.667zM6.667 6c0 0.368-0.299 0.667-0.667 0.667s-0.667-0.299-0.667-0.667c0-0.368 0.299-0.667 0.667-0.667s0.667 0.299 0.667 0.667zM9.333 6c0 0.368-0.299 0.667-0.667 0.667s-0.667-0.299-0.667-0.667c0-0.368 0.299-0.667 0.667-0.667s0.667 0.299 0.667 0.667z"></path> </svg>