<svg role="presentation" version="1.1" xmlns="http://www.w3.org/2000/svg" width="50" height="50" viewBox="0 0 32 32"> <path d="M1.305 0h1.333v32h-1.333v-32zM0 29.32h32v1.333h-32v-1.333zM15.305 27.987h-2.667c-0.367 0-0.667-0.3-0.667-0.667v-12c0-0.368 0.3-0.667 0.667-0.667h2.667c0.368 0 0.667 0.299 0.667 0.667v12c0 0.368-0.299 0.667-0.667 0.667zM13.305 26.653h1.333v-10.667h-1.333v10.667zM8.639 27.987h-2.667c-0.367 0-0.667-0.3-0.667-0.667v-6.667c0-0.368 0.3-0.667 0.667-0.667h2.667c0.368 0 0.667 0.299 0.667 0.667v6.667c0 0.368-0.299 0.667-0.667 0.667zM6.639 26.653h1.333v-5.333h-1.333v5.333zM21.972 27.987h-2.667c-0.367 0-0.667-0.3-0.667-0.667v-6.667c0-0.368 0.3-0.667 0.667-0.667h2.667c0.367 0 0.667 0.299 0.667 0.667v6.667c0 0.368-0.3 0.667-0.667 0.667zM19.972 26.653h1.333v-5.333h-1.333v5.333zM28.639 27.987h-2.667c-0.367 0-0.667-0.3-0.667-0.667v-13.333c0-0.368 0.3-0.667 0.667-0.667h2.667c0.367 0 0.667 0.299 0.667 0.667v13.333c0 0.368-0.3 0.667-0.667 0.667zM26.639 26.653h1.333v-12h-1.333v12zM5.305 19.263c-0.189 0-0.377-0.080-0.509-0.235-0.237-0.281-0.203-0.701 0.079-0.94l9.332-7.889c0.264-0.223 0.656-0.208 0.904 0.039l4.805 4.817 7.639-7.705c0.261-0.26 0.687-0.264 0.943-0.004 0.261 0.26 0.264 0.681 0.005 0.943l-8.109 8.181c-0.125 0.125-0.296 0.197-0.472 0.197-0.124 0.023-0.348-0.071-0.472-0.195l-4.849-4.857-8.863 7.493c-0.127 0.105-0.28 0.155-0.432 0.155z"></path> </svg>