<svg role="presentation" version="1.1" fill="#016af4" xmlns="http://www.w3.org/2000/svg" width="40" height="40" viewBox="0 0 32 32"> <path d="M28 13.333h-1.333v-3.885c0-3.676-4.757-8.115-10.667-8.115s-10.667 4.439-10.667 8.115v3.885h-1.333v-3.885c0-4.367 5.243-9.448 12-9.448s12 5.081 12 9.448v3.885zM31.333 24h-4c-0.367 0-0.667-0.3-0.667-0.667v-10.667c0-0.367 0.3-0.667 0.667-0.667h4c0.367 0 0.667 0.3 0.667 0.667v10.667c0 0.367-0.3 0.667-0.667 0.667zM28 22.667h2.667v-9.333h-2.667v9.333zM4.667 24h-4c-0.368 0-0.667-0.3-0.667-0.667v-10.667c0-0.367 0.299-0.667 0.667-0.667h4c0.368 0 0.667 0.3 0.667 0.667v10.667c0 0.367-0.299 0.667-0.667 0.667zM1.333 22.667h2.667v-9.333h-2.667v9.333zM16 26.628c-5.415 0-9.333-7.257-9.333-12.151v-2.363c0-5.153 4.187-9.347 9.333-9.347 5.145 0 9.333 4.183 9.333 9.317v2.695c0 5.332-4.307 11.848-9.333 11.848zM16 4.099c-4.412 0-8 3.593-8 8.013v2.361c0 4.271 3.584 10.816 8 10.816 4.233 0 8-5.88 8-10.517v-2.692c0-4.397-3.588-7.981-8-7.981zM22 32h-5.396c-1.068 0-1.937-0.869-1.937-1.937 0-1.193 0.869-2.063 1.937-2.063h5.396c0.367 0 0.667 0.3 0.667 0.667v2.667c0 0.367-0.3 0.667-0.667 0.667zM16.604 29.333c-0.333 0-0.604 0.271-0.604 0.604 0 0.459 0.271 0.729 0.604 0.729h4.729v-1.333h-4.729zM24.084 30.667h-1.417c-0.367 0-0.667-0.3-0.667-0.667s0.3-0.667 0.667-0.667h1.417c1.424 0 2.584-1.159 2.584-2.584v-4.083c0-0.367 0.299-0.667 0.667-0.667s0.667 0.3 0.667 0.667v4.084c-0.001 2.161-1.759 3.916-3.917 3.916z"></path> </svg>