<svg role="presentation" version="1.1" xmlns="http://www.w3.org/2000/svg" width="50" height="50" viewBox="0 0 32 32"> <path d="M24 17.333c-0.367 0-0.667-0.3-0.667-0.667v-1c0-0.367 0.3-0.667 0.667-0.667s0.667 0.3 0.667 0.667v1c0 0.367-0.3 0.667-0.667 0.667zM24 10.333c-0.367 0-0.667-0.3-0.667-0.667v-1c0-0.367 0.3-0.667 0.667-0.667s0.667 0.3 0.667 0.667v1c0 0.367-0.3 0.667-0.667 0.667zM28 13.333h-1c-0.367 0-0.667-0.3-0.667-0.667s0.3-0.667 0.667-0.667h1c0.367 0 0.667 0.3 0.667 0.667s-0.3 0.667-0.667 0.667zM21 13.333h-1c-0.367 0-0.667-0.3-0.667-0.667s0.3-0.667 0.667-0.667h1c0.367 0 0.667 0.3 0.667 0.667s-0.3 0.667-0.667 0.667zM26.828 16.161c-0.171 0-0.341-0.065-0.472-0.195l-0.711-0.705c-0.259-0.26-0.259-0.685 0-0.943 0.26-0.26 0.684-0.26 0.943 0l0.711 0.705c0.259 0.26 0.259 0.685 0 0.943-0.129 0.129-0.3 0.195-0.471 0.195zM21.881 11.215c-0.171 0-0.341-0.067-0.472-0.195l-0.711-0.709c-0.259-0.257-0.259-0.683 0-0.943 0.26-0.257 0.684-0.257 0.943 0l0.711 0.709c0.26 0.26 0.26 0.684 0 0.943-0.129 0.129-0.3 0.195-0.471 0.195zM26.12 11.212c-0.171 0-0.341-0.067-0.472-0.195-0.26-0.259-0.26-0.684 0-0.943l0.708-0.707c0.259-0.257 0.684-0.257 0.943 0 0.26 0.26 0.26 0.687 0 0.943l-0.708 0.707c-0.129 0.129-0.3 0.195-0.471 0.195zM21.171 16.161c-0.171 0-0.341-0.065-0.472-0.195-0.259-0.257-0.259-0.683 0-0.943l0.708-0.705c0.26-0.26 0.683-0.26 0.943 0 0.26 0.257 0.26 0.683 0 0.943l-0.708 0.705c-0.129 0.129-0.3 0.195-0.471 0.195zM24 16.333c-2.024 0-3.667-1.643-3.667-3.667s1.643-3.667 3.667-3.667 3.667 1.643 3.667 3.667-1.643 3.667-3.667 3.667zM24 10.333c-1.287 0-2.333 1.047-2.333 2.333s1.047 2.333 2.333 2.333 2.333-1.047 2.333-2.333-1.047-2.333-2.333-2.333zM31.333 22h-30.667c-0.368 0-0.667-0.3-0.667-0.667v-17.333c0-0.367 0.299-0.667 0.667-0.667h30.667c0.367 0 0.667 0.3 0.667 0.667v17.333c0 0.367-0.3 0.667-0.667 0.667zM1.333 20.667h29.333v-16h-29.333v16zM24 28.667h-16c-0.368 0-0.667-0.3-0.667-0.667s0.299-0.667 0.667-0.667h1.472c1.393 0 2.528-1.136 2.528-2.528v-2.805c0-0.367 0.299-0.667 0.667-0.667s0.667 0.3 0.667 0.667v2.805c0 0.969-0.356 1.853-0.944 2.528h7.501c-0.732-0.672-1.223-1.549-1.223-2.528v-2.805c0-0.367 0.299-0.667 0.667-0.667s0.667 0.3 0.667 0.667v2.805c0 1.361 1.756 2.528 3.195 2.528h0.804c0.367 0 0.667 0.3 0.667 0.667s-0.3 0.667-0.667 0.667zM6 18.667c-0.368 0-0.667-0.3-0.667-0.667v-2.667c0-0.367 0.299-0.667 0.667-0.667s0.667 0.3 0.667 0.667v2.667c0 0.367-0.299 0.667-0.667 0.667zM8.667 18.667c-0.368 0-0.667-0.3-0.667-0.667v-9.333c0-0.367 0.299-0.667 0.667-0.667s0.667 0.3 0.667 0.667v9.333c0 0.367-0.299 0.667-0.667 0.667zM11.333 18.667c-0.368 0-0.667-0.3-0.667-0.667v-5.333c0-0.367 0.299-0.667 0.667-0.667s0.667 0.3 0.667 0.667v5.333c0 0.367-0.299 0.667-0.667 0.667zM14 18.667c-0.368 0-0.667-0.3-0.667-0.667v-6.667c0-0.367 0.299-0.667 0.667-0.667s0.667 0.3 0.667 0.667v6.667c0 0.367-0.299 0.667-0.667 0.667zM16.667 18.667c-0.368 0-0.667-0.3-0.667-0.667v-10.667c0-0.367 0.299-0.667 0.667-0.667 0.367 0 0.667 0.3 0.667 0.667v10.667c0 0.367-0.3 0.667-0.667 0.667z"></path> </svg>