<svg role="presentation" version="1.1" xmlns="http://www.w3.org/2000/svg" width="50" height="50" viewBox="0 0 32 32"> <path d="M29.419 28.015h-26.837c-0.677 0-1.324-0.289-1.776-0.792-0.452-0.505-0.671-1.177-0.599-1.852l0.721-6.812c0.017-0.169 0.1-0.325 0.228-0.437l1.299-1.112 1.121-8.972c0.287-2.297 2.248-4.028 4.56-4.028h15.728c2.312 0 4.276 1.732 4.56 4.028l1.125 8.984 1.323 1.207c0.121 0.109 0.195 0.259 0.213 0.42l0.708 6.716c0.073 0.675-0.145 1.351-0.599 1.853-0.452 0.509-1.101 0.797-1.776 0.797zM2.224 18.963l-0.693 6.552c-0.031 0.297 0.065 0.593 0.265 0.817 0.2 0.221 0.485 0.349 0.784 0.349h26.839c0.299 0 0.584-0.128 0.784-0.349 0.197-0.224 0.297-0.523 0.265-0.815l-0.687-6.469-1.316-1.203c-0.119-0.107-0.195-0.252-0.211-0.409l-1.153-9.229c-0.203-1.633-1.595-2.861-3.237-2.861h-15.728c-1.641 0-3.033 1.229-3.237 2.861l-1.153 9.224c-0.020 0.164-0.101 0.312-0.227 0.42l-1.295 1.112zM6.667 24.028c-1.471 0-2.667-1.195-2.667-2.668 0-1.471 1.196-2.665 2.667-2.665s2.667 1.195 2.667 2.665-1.196 2.668-2.667 2.668zM6.667 20.028c-0.735 0-1.333 0.599-1.333 1.332 0 0.736 0.599 1.335 1.333 1.335s1.333-0.599 1.333-1.335c0-0.733-0.599-1.332-1.333-1.332zM25.333 24.028c-1.472 0-2.667-1.195-2.667-2.668 0-1.471 1.195-2.665 2.667-2.665s2.667 1.195 2.667 2.665-1.195 2.668-2.667 2.668zM25.333 20.028c-0.736 0-1.333 0.599-1.333 1.332 0 0.736 0.597 1.335 1.333 1.335s1.333-0.599 1.333-1.335c0-0.733-0.597-1.332-1.333-1.332zM10.667 18.681h10.667v1.333h-10.667v-1.333zM10.667 21.348h10.667v1.333h-10.667v-1.333zM31.333 18.681h-2v-1.333h1.333v-16h-29.333v16h1.333v1.333h-2c-0.368 0-0.667-0.3-0.667-0.667v-17.333c0-0.367 0.299-0.667 0.667-0.667h30.667c0.367 0 0.667 0.3 0.667 0.667v17.333c0 0.367-0.3 0.667-0.667 0.667zM5.333 31.985c-1.471 0-2.667-1.184-2.667-2.639v-1.333h1.333v1.333c0 0.732 0.585 1.305 1.333 1.305 0.723 0 1.333-0.623 1.333-1.361v-1.277h1.333v1.279c0 1.487-1.196 2.693-2.667 2.693zM26.667 31.985c-1.472 0-2.667-1.184-2.667-2.639v-1.333h1.333v1.333c0 0.732 0.585 1.305 1.333 1.305 0.723 0 1.333-0.623 1.333-1.361v-1.277h1.333v1.279c0 1.487-1.195 2.693-2.667 2.693zM20.667 25.348h-9.333c-0.368 0-0.667-0.3-0.667-0.667v-8c0-0.367 0.299-0.667 0.667-0.667h9.333c0.367 0 0.667 0.3 0.667 0.667v8c0 0.367-0.3 0.667-0.667 0.667zM12 24.015h8v-6.667h-8v6.667zM4 13.348h24v1.333h-24v-1.333zM6.667 8.681c-0.175 0-0.351-0.069-0.481-0.203-0.255-0.269-0.247-0.691 0.020-0.944l1.389-1.333c0.265-0.256 0.687-0.248 0.943 0.020 0.255 0.267 0.247 0.692-0.020 0.943l-1.389 1.333c-0.128 0.123-0.295 0.184-0.461 0.184zM6.667 11.239c-0.173 0-0.347-0.068-0.477-0.2-0.256-0.267-0.251-0.688 0.013-0.944l4-3.891c0.264-0.255 0.685-0.251 0.943 0.013 0.256 0.263 0.251 0.688-0.013 0.943l-4 3.891c-0.131 0.125-0.299 0.188-0.465 0.188zM10 4.681c-0.368 0-0.667-0.3-0.667-0.667v-1.333c0-0.367 0.299-0.667 0.667-0.667s0.667 0.299 0.667 0.667v1.333c0 0.367-0.299 0.667-0.667 0.667zM22 4.681c-0.367 0-0.667-0.3-0.667-0.667v-1.333c0-0.367 0.3-0.667 0.667-0.667s0.667 0.3 0.667 0.667v1.333c0 0.367-0.3 0.667-0.667 0.667z"></path> </svg>